<svg version="1.1" id="Layer_1" xmlns="http://www.w3.org/2000/svg" xmlns:xlink="http://www.w3.org/1999/xlink" x="0px" y="0px"
	 width="100%" viewBox="0 0 240 240" enable-background="new 0 0 240 240" xml:space="preserve">
<path fill="#00000F" opacity="1.000000" stroke="none" 
	d="
M140.000000,241.000000 
	C93.333336,241.000000 47.166672,241.000000 1.000006,241.000000 
	C1.000004,161.000000 1.000004,81.000015 1.000002,1.000017 
	C80.999992,1.000011 160.999985,1.000011 240.999969,1.000006 
	C240.999985,80.999985 240.999985,160.999969 241.000000,240.999969 
	C207.500000,241.000000 174.000000,241.000000 140.000000,241.000000 
M208.712189,96.000168 
	C206.036102,96.661682 203.273254,97.085327 200.698471,98.024544 
	C187.241577,102.933281 181.493576,120.889626 189.175125,132.780914 
	C195.196564,142.102310 203.856979,144.518478 214.231049,144.065826 
	C224.650375,143.611191 237.517090,131.875961 235.838745,118.622620 
	C234.043854,104.449043 224.387299,96.060173 208.712189,96.000168 
M118.358727,143.930832 
	C118.572487,138.172760 118.846275,132.416077 118.980728,126.656143 
	C119.085556,122.165283 122.341286,117.561798 126.721672,115.994850 
	C131.817581,114.171928 133.980469,115.671227 133.994904,121.090424 
	C134.015137,128.691620 134.000000,136.292923 134.000000,144.074905 
	C136.345490,143.954681 138.086578,143.865433 140.000000,143.767349 
	C140.000000,135.241318 140.021988,127.098618 139.992767,118.956093 
	C139.970840,112.841164 134.242508,108.315247 128.474426,110.334068 
	C125.236145,111.467461 122.411987,113.784058 118.989853,115.811287 
	C118.989853,109.255814 118.989853,102.721420 118.989853,96.268143 
	C116.729538,96.268143 114.992050,96.268143 113.250046,96.268143 
	C113.250046,112.278900 113.250046,128.020798 113.250046,143.994934 
	C114.803078,143.994934 116.107712,143.994934 118.358727,143.930832 
M19.947662,110.074875 
	C18.375900,110.506561 16.816563,110.992004 15.229786,111.358727 
	C11.955732,112.115372 11.203655,113.923676 12.599378,116.886002 
	C25.270729,112.743225 28.699276,114.292580 27.595413,123.464737 
	C23.490028,124.416641 19.283110,125.066559 15.307136,126.403366 
	C11.130804,127.807541 9.049073,131.529419 9.164432,135.609955 
	C9.277738,139.617874 11.282494,142.709274 15.828525,144.183548 
	C21.322151,145.965134 24.802099,143.018692 28.791309,140.191299 
	C31.103966,144.788162 34.376759,146.235291 39.092125,143.174866 
	C38.889542,142.413635 38.888641,141.379715 38.536411,141.241577 
	C33.385582,139.221344 33.982121,134.819107 33.996933,130.634216 
	C34.011074,126.639832 33.890766,122.641518 34.031219,118.652023 
	C34.164925,114.854210 32.378456,112.223259 29.025505,111.112015 
	C26.451588,110.258949 23.566504,110.344788 19.947662,110.074875 
M97.703079,110.996368 
	C96.825325,108.724617 95.947578,106.452866 95.072006,104.186752 
	C93.599327,104.563194 91.919632,104.992546 89.898071,105.509293 
	C89.898071,107.238258 89.898071,109.001022 89.898071,109.470406 
	C88.039711,111.089600 87.022751,111.975685 86.005791,112.861771 
	C87.205879,113.958733 88.405968,115.055695 90.000244,116.512962 
	C90.000244,121.964066 89.723320,128.132355 90.069458,134.265472 
	C90.514885,142.157852 94.965637,145.830170 102.287781,144.184708 
	C103.521194,143.907516 104.416573,142.126160 106.335045,140.144196 
	C97.691086,139.897293 96.024055,138.205170 96.001602,131.597641 
	C95.991997,128.769348 96.004761,125.941002 95.999123,123.112694 
	C95.980171,113.597466 95.529045,115.126747 103.910057,114.941788 
	C104.195824,114.935471 104.475922,114.672455 104.767014,114.524857 
	C104.767014,113.441795 104.767014,112.368958 104.767014,110.999741 
	C102.573006,110.999741 100.602951,110.999741 97.703079,110.996368 
M70.998871,112.919319 
	C69.227486,112.071693 67.456100,111.224060 65.234467,110.160980 
	C65.234467,122.266975 65.234467,132.996765 65.234467,143.774200 
	C67.211472,143.774200 68.946548,143.774200 71.000000,143.774200 
	C71.000000,137.771225 70.749420,131.971603 71.109039,126.210068 
	C71.280724,123.459427 71.832466,119.945656 73.615746,118.283524 
	C75.798119,116.249405 79.452095,115.794136 82.736786,114.555481 
	C82.736786,113.669945 82.736786,111.910049 82.736786,108.629128 
	C78.903114,110.566910 75.908562,112.119522 72.869469,113.579422 
	C72.345352,113.831200 71.632050,113.689133 70.998871,112.919319 
M174.524933,111.000435 
	C173.684189,111.650307 172.120926,112.289238 172.110870,112.951698 
	C171.955902,123.181793 172.002686,133.414948 172.002686,143.820007 
	C174.135757,143.820007 175.866379,143.820007 177.998871,143.820007 
	C177.998871,133.578308 178.058044,123.510078 177.889465,113.445656 
	C177.875580,112.617310 176.314575,111.814880 174.524933,111.000435 
M47.000000,118.579742 
	C47.000000,126.993340 47.000000,135.406937 47.000000,143.820541 
	C47.517124,144.163101 48.034248,144.505661 48.551373,144.848221 
	C50.027573,143.628128 52.738697,142.452133 52.784069,141.180984 
	C53.138191,131.259109 52.979977,121.318970 52.979977,111.345718 
	C50.726131,111.345718 49.018147,111.345718 47.000000,111.345718 
	C47.000000,113.656052 47.000000,115.630219 47.000000,118.579742 
M152.004211,142.341568 
	C154.550308,143.075638 157.096420,143.809723 159.906113,144.619797 
	C160.098038,135.469955 159.798141,135.207062 152.000320,136.598755 
	C152.000320,138.175354 152.000320,139.794327 152.004211,142.341568 
M172.000397,102.465904 
	C172.302948,107.412514 175.731644,103.991440 177.654297,105.109566 
	C177.654297,102.724457 177.654297,100.893532 177.654297,98.431061 
	C175.647903,100.124344 171.922546,96.745979 172.000397,102.465904 
M47.131668,104.137688 
	C52.469479,105.781410 53.231441,105.124786 52.527374,99.246742 
	C50.850006,99.246742 49.147865,99.246742 47.022392,99.246742 
	C47.022392,100.745789 47.022392,102.007378 47.131668,104.137688 
z"/>
<path fill="#D45500" opacity="1.000000" stroke="none" 
	d="
M209.160065,96.000084 
	C224.387299,96.060173 234.043854,104.449043 235.838745,118.622620 
	C237.517090,131.875961 224.650375,143.611191 214.231049,144.065826 
	C203.856979,144.518478 195.196564,142.102310 189.175125,132.780914 
	C181.493576,120.889626 187.241577,102.933281 200.698471,98.024544 
	C203.273254,97.085327 206.036102,96.661682 209.160065,96.000084 
M228.010666,120.622513 
	C224.398605,111.051224 217.435379,104.719223 208.393372,100.128799 
	C201.220673,107.226471 197.862793,115.837349 197.005585,125.573822 
	C196.732513,128.675629 198.106598,130.143921 201.191254,131.201508 
	C209.994965,134.219910 218.650330,133.753235 227.191925,130.743164 
	C228.503296,130.281021 229.543594,127.672089 229.767807,125.934525 
	C229.950089,124.521751 228.721832,122.926971 228.010666,120.622513 
z"/>
<path fill="#FFFFFF" opacity="1.000000" stroke="none" 
	d="
M117.885536,143.962891 
	C116.107712,143.994934 114.803078,143.994934 113.250046,143.994934 
	C113.250046,128.020798 113.250046,112.278900 113.250046,96.268143 
	C114.992050,96.268143 116.729538,96.268143 118.989853,96.268143 
	C118.989853,102.721420 118.989853,109.255814 118.989853,115.811287 
	C122.411987,113.784058 125.236145,111.467461 128.474426,110.334068 
	C134.242508,108.315247 139.970840,112.841164 139.992767,118.956093 
	C140.021988,127.098618 140.000000,135.241318 140.000000,143.767349 
	C138.086578,143.865433 136.345490,143.954681 134.000000,144.074905 
	C134.000000,136.292923 134.015137,128.691620 133.994904,121.090424 
	C133.980469,115.671227 131.817581,114.171928 126.721672,115.994850 
	C122.341286,117.561798 119.085556,122.165283 118.980728,126.656143 
	C118.846275,132.416077 118.572487,138.172760 117.885536,143.962891 
z"/>
<path fill="#D45500" opacity="1.000000" stroke="none" 
	d="
M20.383732,110.043976 
	C23.566504,110.344788 26.451588,110.258949 29.025505,111.112015 
	C32.378456,112.223259 34.164925,114.854210 34.031219,118.652023 
	C33.890766,122.641518 34.011074,126.639832 33.996933,130.634216 
	C33.982121,134.819107 33.385582,139.221344 38.536411,141.241577 
	C38.888641,141.379715 38.889542,142.413635 39.092125,143.174866 
	C34.376759,146.235291 31.103966,144.788162 28.791309,140.191299 
	C24.802099,143.018692 21.322151,145.965134 15.828525,144.183548 
	C11.282494,142.709274 9.277738,139.617874 9.164432,135.609955 
	C9.049073,131.529419 11.130804,127.807541 15.307136,126.403366 
	C19.283110,125.066559 23.490028,124.416641 27.596577,123.469460 
	C28.699276,114.292580 25.270729,112.743225 12.599378,116.886002 
	C11.203655,113.923676 11.955732,112.115372 15.229786,111.358727 
	C16.816563,110.992004 18.375900,110.506561 20.383732,110.043976 
M21.308388,128.266708 
	C20.584770,128.638306 19.858086,129.004089 19.138084,129.382568 
	C16.364948,130.840240 14.107945,132.646118 15.680887,136.211258 
	C17.156507,139.555832 19.473425,140.522720 23.135607,139.116867 
	C28.553316,137.037109 28.889414,136.615601 27.397623,128.048584 
	C25.677780,128.048584 23.897614,128.048584 21.308388,128.266708 
z"/>
<path fill="#FFFFFF" opacity="1.000000" stroke="none" 
	d="
M98.167984,110.998055 
	C100.602951,110.999741 102.573006,110.999741 104.767014,110.999741 
	C104.767014,112.368958 104.767014,113.441795 104.767014,114.524857 
	C104.475922,114.672455 104.195824,114.935471 103.910057,114.941788 
	C95.529045,115.126747 95.980171,113.597466 95.999123,123.112694 
	C96.004761,125.941002 95.991997,128.769348 96.001602,131.597641 
	C96.024055,138.205170 97.691086,139.897293 106.335045,140.144196 
	C104.416573,142.126160 103.521194,143.907516 102.287781,144.184708 
	C94.965637,145.830170 90.514885,142.157852 90.069458,134.265472 
	C89.723320,128.132355 90.000244,121.964066 90.000244,116.512962 
	C88.405968,115.055695 87.205879,113.958733 86.005783,112.861771 
	C87.022751,111.975685 88.039711,111.089600 89.898071,109.470406 
	C89.898071,109.001022 89.898071,107.238258 89.898071,105.509293 
	C91.919632,104.992546 93.599327,104.563194 95.072006,104.186752 
	C95.947578,106.452866 96.825325,108.724617 98.167984,110.998055 
z"/>
<path fill="#FFFFFF" opacity="1.000000" stroke="none" 
	d="
M71.002502,113.324158 
	C71.632050,113.689133 72.345352,113.831200 72.869469,113.579422 
	C75.908562,112.119522 78.903114,110.566910 82.736786,108.629128 
	C82.736786,111.910049 82.736786,113.669945 82.736786,114.555481 
	C79.452095,115.794136 75.798119,116.249405 73.615746,118.283524 
	C71.832466,119.945656 71.280724,123.459427 71.109039,126.210068 
	C70.749420,131.971603 71.000000,137.771225 71.000000,143.774200 
	C68.946548,143.774200 67.211472,143.774200 65.234467,143.774200 
	C65.234467,132.996765 65.234467,122.266975 65.234467,110.160980 
	C67.456100,111.224060 69.227486,112.071693 71.002502,113.324158 
z"/>
<path fill="#FFFFFF" opacity="1.000000" stroke="none" 
	d="
M174.998688,111.000427 
	C176.314575,111.814880 177.875580,112.617310 177.889465,113.445656 
	C178.058044,123.510078 177.998871,133.578308 177.998871,143.820007 
	C175.866379,143.820007 174.135757,143.820007 172.002686,143.820007 
	C172.002686,133.414948 171.955902,123.181793 172.110870,112.951698 
	C172.120926,112.289238 173.684189,111.650307 174.998688,111.000427 
z"/>
<path fill="#D45500" opacity="1.000000" stroke="none" 
	d="
M47.000000,118.092064 
	C47.000000,115.630219 47.000000,113.656052 47.000000,111.345718 
	C49.018147,111.345718 50.726131,111.345718 52.979977,111.345718 
	C52.979977,121.318970 53.138191,131.259109 52.784069,141.180984 
	C52.738697,142.452133 50.027573,143.628128 48.551373,144.848221 
	C48.034248,144.505661 47.517124,144.163101 47.000000,143.820541 
	C47.000000,135.406937 47.000000,126.993340 47.000000,118.092064 
z"/>
<path fill="#FFFFFF" opacity="1.000000" stroke="none" 
	d="
M152.002258,141.877441 
	C152.000320,139.794327 152.000320,138.175354 152.000320,136.598755 
	C159.798141,135.207062 160.098038,135.469955 159.906113,144.619797 
	C157.096420,143.809723 154.550308,143.075638 152.002258,141.877441 
z"/>
<path fill="#FFFFFF" opacity="1.000000" stroke="none" 
	d="
M172.000366,102.002357 
	C171.922546,96.745979 175.647903,100.124344 177.654297,98.431061 
	C177.654297,100.893532 177.654297,102.724457 177.654297,105.109566 
	C175.731644,103.991440 172.302948,107.412514 172.000366,102.002357 
z"/>
<path fill="#D45500" opacity="1.000000" stroke="none" 
	d="
M47.077030,103.703331 
	C47.022392,102.007378 47.022392,100.745789 47.022392,99.246742 
	C49.147865,99.246742 50.850006,99.246742 52.527374,99.246742 
	C53.231441,105.124786 52.469479,105.781410 47.077030,103.703331 
z"/>
<path fill="#00000F" opacity="1.000000" stroke="none" 
	d="
M228.064880,121.017708 
	C228.721832,122.926971 229.950089,124.521751 229.767807,125.934525 
	C229.543594,127.672089 228.503296,130.281021 227.191925,130.743164 
	C218.650330,133.753235 209.994965,134.219910 201.191254,131.201508 
	C198.106598,130.143921 196.732513,128.675629 197.005585,125.573822 
	C197.862793,115.837349 201.220673,107.226471 208.393372,100.128799 
	C217.435379,104.719223 224.398605,111.051224 228.064880,121.017708 
z"/>
<path fill="#00000F" opacity="1.000000" stroke="none" 
	d="
M21.712917,128.157654 
	C23.897614,128.048584 25.677780,128.048584 27.397623,128.048584 
	C28.889414,136.615601 28.553316,137.037109 23.135607,139.116867 
	C19.473425,140.522720 17.156507,139.555832 15.680887,136.211258 
	C14.107945,132.646118 16.364948,130.840240 19.138084,129.382568 
	C19.858086,129.004089 20.584770,128.638306 21.712917,128.157654 
z"/>
</svg>