<svg version="1.1" id="Layer_1" xmlns="http://www.w3.org/2000/svg" xmlns:xlink="http://www.w3.org/1999/xlink" x="0px" y="0px"
	 width="100%" viewBox="0 0 1024 1024" enable-background="new 0 0 1024 1024" xml:space="preserve">
<path fill="#000000" opacity="1.000000" stroke="none" 
	d="
M1.000000,678.468628 
	C3.462193,671.674255 5.441654,665.196655 9.228668,659.386719 
	C22.339102,639.272949 46.621799,629.327271 72.071243,633.950500 
	C95.957550,638.289734 114.503227,655.648010 118.564011,679.554749 
	C124.169876,712.557739 104.471825,740.448425 71.199715,746.163452 
	C47.006908,750.318970 26.382875,743.211182 11.013817,723.377808 
	C6.048871,716.970703 3.499845,709.344421 1.201546,701.296326 
	C1.000000,693.645752 1.000000,686.291504 1.000000,678.468628 
M64.665131,672.499756 
	C62.010990,672.440613 59.327545,672.101624 56.708317,672.375916 
	C49.428280,673.138367 42.823372,679.009827 41.482700,685.599182 
	C39.847607,693.635620 43.507687,702.141418 50.160305,705.765381 
	C59.968578,711.108215 73.208664,706.971863 77.469948,697.169922 
	C81.331276,688.288147 77.194450,675.643433 64.665131,672.499756 
z"/>
<path fill="#000000" opacity="1.000000" stroke="none" 
	d="
M1025.000000,722.533142 
	C1013.760437,747.305054 983.915833,755.239990 963.876465,739.396179 
	C960.522888,736.744690 959.550110,734.548767 963.062317,731.524414 
	C963.187378,731.416748 963.285400,731.277222 963.393494,731.150391 
	C968.540344,725.105408 968.540283,725.105530 975.083984,729.083923 
	C983.637207,734.284119 994.548340,734.160339 1001.992615,728.778625 
	C1012.334961,721.302002 1011.580078,709.368835 1000.233826,703.847229 
	C994.104004,700.864197 987.661987,698.529053 981.457764,695.689758 
	C977.984558,694.100281 974.674683,692.138794 971.350586,690.240906 
	C953.522217,680.062012 956.611145,657.457581 972.051208,647.968567 
	C985.619385,639.630005 1005.079651,641.622864 1016.696838,652.551270 
	C1018.186646,653.952698 1019.221191,655.221008 1017.717957,657.207397 
	C1015.626587,659.971008 1013.576660,662.766113 1011.668457,665.333191 
	C1009.046631,665.393921 1008.136658,663.509644 1006.718201,662.462402 
	C999.470581,657.111877 991.660889,655.553162 983.194458,659.084290 
	C978.764709,660.931885 975.760559,664.101990 975.340881,669.152161 
	C974.916626,674.257202 978.008301,677.080933 982.004578,679.332031 
	C990.026672,683.850525 998.781616,686.673950 1007.220215,690.221497 
	C1015.066833,693.520142 1021.329712,698.344788 1024.793457,706.734253 
	C1025.000000,712.022095 1025.000000,717.044189 1025.000000,722.533142 
z"/>
<path fill="#000000" opacity="1.000000" stroke="none" 
	d="
M1025.000000,595.545898 
	C1017.142761,606.294617 1006.317200,606.605408 1000.719849,596.697083 
	C997.072571,590.240723 998.952026,582.625488 1005.135681,578.805481 
	C1011.336060,574.975159 1018.936584,576.676086 1023.124634,582.852173 
	C1023.683472,583.676270 1024.136719,584.572021 1024.819336,585.717285 
	C1025.000000,589.030579 1025.000000,592.061218 1025.000000,595.545898 
M1007.446472,599.561035 
	C1010.158752,601.428223 1012.873596,601.305420 1016.013306,599.661926 
	C1014.106934,597.382202 1013.420288,594.543945 1010.719910,593.078125 
	C1009.555481,595.416748 1010.738403,598.837158 1006.804626,598.273682 
	C1005.841003,593.342102 1007.469299,588.148254 1005.560730,583.057251 
	C1000.245361,588.659119 1000.958252,595.191711 1007.446472,599.561035 
M1018.987793,585.403015 
	C1019.186584,586.940857 1018.996277,588.494629 1017.955872,589.610596 
	C1015.025269,592.754028 1017.001587,594.793152 1019.157715,597.051758 
	C1023.290161,592.530396 1023.704041,587.838318 1020.441589,584.065247 
	C1019.220886,582.653442 1018.517456,582.666016 1018.987793,585.403015 
M1013.103027,584.506836 
	C1010.856262,584.118774 1009.982605,585.193115 1010.407532,587.277344 
	C1010.695190,588.688538 1011.957275,589.052979 1013.112488,588.606812 
	C1015.267883,587.774597 1015.165588,586.352173 1013.103027,584.506836 
z"/>
<path fill="#000000" opacity="1.000000" stroke="none" 
	d="
M402.010498,494.034363 
	C357.569763,461.885925 331.365906,418.912811 321.785400,365.338654 
	C318.043396,344.413116 321.526337,324.344604 326.011414,304.138367 
	C328.820953,291.480743 331.180603,278.722931 333.703552,266.002380 
	C334.259491,263.199432 335.116547,260.600067 336.749939,258.174561 
	C349.220215,239.657059 361.640472,221.105606 373.990936,202.508011 
	C375.807281,199.772934 378.227356,197.855179 380.864960,196.092255 
	C398.729675,184.151794 416.628662,172.262131 434.437561,160.239014 
	C437.834442,157.945724 441.415802,156.521667 445.406311,155.752228 
	C466.319092,151.719833 487.232605,147.686234 508.099060,143.423767 
	C511.677704,142.692749 514.964233,142.922241 518.426025,143.646591 
	C539.767090,148.112076 561.124084,152.501831 582.479370,156.899200 
	C585.937073,157.611176 589.077332,158.863876 592.047241,160.896667 
	C609.783142,173.036102 627.595337,185.064377 645.423828,197.067780 
	C647.815674,198.678131 649.821533,200.526276 651.459900,202.918777 
	C664.449890,221.888535 677.484863,240.827621 690.549683,259.746002 
	C693.944031,264.661194 693.794861,270.520569 694.891724,275.987427 
	C698.783569,295.385162 702.646179,314.801819 705.824585,334.324493 
	C707.547852,344.909088 705.600525,355.635437 703.841614,366.106354 
	C695.071228,418.319244 669.397949,460.434967 626.838440,491.902283 
	C597.495850,513.597412 564.415344,525.699585 527.910095,528.432434 
	C481.962097,531.872131 440.203644,520.211975 402.010498,494.034363 
M479.631989,220.141937 
	C458.551727,226.354095 440.331512,237.256409 425.376465,253.425201 
	C399.239624,281.683228 388.540710,315.125000 393.658722,353.099976 
	C397.885529,384.462250 412.952728,410.308319 437.725586,430.052063 
	C467.871582,454.078186 502.295868,461.518158 539.684937,453.451080 
	C566.564209,447.651642 588.818054,433.413300 606.288940,412.049408 
	C624.362732,389.948090 633.384949,364.360840 633.441956,335.998840 
	C633.471313,321.385559 630.998901,306.887878 625.496033,293.054993 
	C612.779907,261.089539 590.710938,238.214233 559.099731,224.834686 
	C533.544128,214.018173 507.185394,212.738846 479.631989,220.141937 
M681.434143,309.151703 
	C682.968689,316.476288 684.492615,323.803131 686.046692,331.123566 
	C686.350281,332.553833 686.354431,334.511322 688.215576,334.662659 
	C691.909729,334.963074 695.726624,335.788757 699.671570,333.720764 
	C696.154175,315.105164 692.728577,296.649261 689.150146,278.223053 
	C687.987671,272.237335 687.613464,266.066467 683.881653,260.723480 
	C672.912048,245.017807 662.244324,229.101303 651.281006,213.391174 
	C648.458801,209.347031 646.199524,204.869247 641.806274,201.938766 
	C624.484070,190.384094 607.261658,178.678024 590.101135,166.884293 
	C586.715332,164.557343 583.163452,163.117676 579.182678,162.307907 
	C561.733887,158.758362 544.312988,155.071686 526.871460,151.486023 
	C519.252380,149.919678 511.845978,148.266907 503.770142,150.177277 
	C488.233887,153.852524 472.517731,156.866913 456.766266,159.497040 
	C446.502136,161.210922 437.486786,164.924759 429.060028,171.039627 
	C418.147461,178.958282 406.635040,186.044846 395.518066,193.689194 
	C387.903595,198.925110 379.968781,203.503311 374.790863,211.963608 
	C365.407654,227.295013 355.127625,242.084442 345.003296,256.951202 
	C341.934540,261.457397 339.943237,266.120422 338.949982,271.502502 
	C336.686279,283.768555 333.908417,295.938812 331.439819,308.168243 
	C329.706238,316.756653 328.138153,325.378479 326.507080,333.928040 
	C336.298737,336.818176 338.821503,335.497314 340.570282,326.690704 
	C343.712524,310.866638 346.634277,294.997253 349.944458,279.208923 
	C350.986328,274.239685 351.043060,268.981049 354.226562,264.499359 
	C365.610535,248.473160 376.843262,232.339340 388.090240,216.216278 
	C389.554565,214.117111 391.390289,212.520370 393.484558,211.107391 
	C410.056427,199.926407 426.634613,188.754211 443.137238,177.471649 
	C445.833099,175.628555 448.697235,174.565475 451.825623,173.928894 
	C468.134674,170.610184 484.419006,167.165817 500.753998,163.980789 
	C506.723083,162.816910 512.547607,161.180450 518.955139,162.617157 
	C537.630493,166.804520 556.424316,170.469513 575.198547,174.204193 
	C578.726929,174.906052 581.779053,176.286407 584.704346,178.315857 
	C599.212341,188.380783 613.772400,198.370712 628.332092,208.360870 
	C632.038452,210.904022 635.685242,213.354691 638.254578,217.296448 
	C649.080078,233.904633 660.059326,250.413315 671.085571,266.889313 
	C673.079529,269.868896 674.369385,273.013855 675.049927,276.484009 
	C677.130859,287.094177 679.237061,297.699432 681.434143,309.151703 
M672.545715,294.856903 
	C671.902405,291.762024 671.322876,288.652191 670.601990,285.575470 
	C669.247498,279.794739 668.603699,273.928101 665.032471,268.697418 
	C654.419373,253.152695 644.198730,237.339722 633.857056,221.610367 
	C632.378662,219.361771 630.763123,217.332169 628.497253,215.781693 
	C612.412842,204.775757 596.361816,193.721085 580.312134,182.664536 
	C578.498901,181.415421 576.569519,180.651871 574.382385,180.213638 
	C558.880615,177.107574 543.414062,173.825027 527.908386,170.739075 
	C519.952454,169.155655 512.137512,167.363129 503.766327,169.376221 
	C489.535583,172.798370 475.138580,175.572464 460.741913,178.244095 
	C452.898468,179.699585 445.938812,182.534500 439.411591,187.214508 
	C428.180420,195.267181 416.484711,202.668640 405.115753,210.533920 
	C400.366760,213.819336 395.151825,216.492050 391.711273,221.555634 
	C382.818115,234.644043 373.788696,247.644196 364.575806,260.509216 
	C360.140503,266.702698 357.023651,273.140015 355.857574,280.835236 
	C354.064941,292.665070 351.358551,304.355835 349.069092,316.111298 
	C347.903107,322.098328 346.152344,328.000641 345.938141,333.844391 
	C347.467773,335.201447 348.853149,334.934937 350.156982,334.971039 
	C358.419983,335.199951 358.490845,335.206421 360.133820,327.086914 
	C363.069763,312.577911 365.981140,298.063110 368.752411,283.522064 
	C369.671417,278.699890 371.371552,274.384216 374.164551,270.289459 
	C383.176178,257.077698 391.972504,243.718323 400.772125,230.363373 
	C402.460480,227.800980 404.501068,225.742477 407.046814,224.055313 
	C421.488922,214.483917 435.911255,204.882416 450.303345,195.236008 
	C452.984558,193.438904 455.823334,192.288818 459.004517,191.705399 
	C472.426941,189.243713 485.800385,186.502594 499.251160,184.212845 
	C505.714783,183.112503 512.002991,181.091171 518.926636,182.699905 
	C532.537415,185.862488 546.363098,188.088013 560.041870,190.975922 
	C565.845398,192.201157 571.976562,192.393723 577.163330,195.958878 
	C591.165955,205.583664 605.213013,215.144272 619.286804,224.664795 
	C621.409912,226.101013 623.062317,227.831680 624.453369,229.969940 
	C633.992249,244.632401 643.548340,259.284241 653.211731,273.864685 
	C655.284790,276.992584 656.563232,280.295258 657.312012,283.939209 
	C660.525269,299.577545 663.814026,315.200531 667.138306,330.815704 
	C667.987549,334.804810 671.267029,336.072571 677.050720,334.857361 
	C681.349304,333.954193 679.611633,330.861847 679.164978,328.509186 
	C677.085571,317.556091 674.848877,306.632812 672.545715,294.856903 
M573.077759,215.394897 
	C583.278137,222.317032 593.431641,229.309830 603.703857,236.123672 
	C607.388855,238.568024 610.324829,241.522446 612.741333,245.240723 
	C620.367432,256.975555 628.119568,268.630829 635.991455,280.202271 
	C638.204712,283.455780 639.568604,286.877563 640.322937,290.692993 
	C642.934448,303.902008 645.656250,317.089264 648.338501,330.284332 
	C648.774536,332.429565 649.073242,334.812775 651.974792,334.861298 
	C654.918213,334.910583 657.936829,335.492218 661.014404,334.163422 
	C660.942993,333.149963 660.983704,332.164520 660.791077,331.226990 
	C657.508301,315.249298 654.178833,299.281158 650.915466,283.299561 
	C650.538025,281.451019 649.772583,279.857849 648.759766,278.305389 
	C642.842651,269.235504 636.439575,260.433167 631.182922,250.993454 
	C623.182861,236.627167 612.370911,225.419174 598.031067,217.418427 
	C593.684692,214.993393 589.907410,211.558197 585.593811,209.062057 
	C579.314636,205.428452 574.248718,199.759064 566.631897,198.327896 
	C551.748901,195.531418 536.929565,192.397614 522.059692,189.528854 
	C517.509033,188.650909 512.975281,187.577789 508.208435,188.523102 
	C494.330475,191.275269 480.402069,193.773361 466.524078,196.525330 
	C461.512512,197.519104 456.461975,198.161346 451.957520,201.260513 
	C438.646210,210.418884 425.123840,219.271866 411.632843,228.166626 
	C408.931885,229.947403 406.766113,232.090698 404.997192,234.804810 
	C396.173676,248.343262 387.267334,261.827820 378.368774,275.317200 
	C376.978027,277.425385 375.865601,279.617584 375.374512,282.125061 
	C372.207336,298.296570 369.016937,314.463593 365.818481,330.628937 
	C365.560852,331.930878 365.005920,333.238220 366.279602,334.324677 
	C369.217316,336.830566 376.806000,334.454926 377.631134,330.695435 
	C379.022156,324.357819 380.802551,318.050140 381.514832,311.629547 
	C383.642090,292.454407 391.338684,276.065796 402.375092,260.190613 
	C412.199036,246.059464 422.822052,233.755829 437.976410,225.547958 
	C440.310974,224.283508 442.580475,222.803680 444.624939,221.114639 
	C455.345917,212.257446 467.692780,207.528564 481.435699,206.006287 
	C485.556793,205.549805 489.684753,204.742325 493.678680,203.626938 
	C506.298035,200.102753 518.779175,199.796997 531.470398,203.563477 
	C538.147156,205.544998 545.183899,206.279648 551.991516,207.863342 
	C559.055786,209.506714 566.651245,209.743561 573.077759,215.394897 
z"/>
<path fill="#000000" opacity="1.000000" stroke="none" 
	d="
M221.857300,732.143250 
	C190.198242,698.938843 205.604782,647.056030 247.816788,636.560486 
	C294.197296,625.028625 324.867462,660.024231 321.111786,699.656372 
	C320.716736,703.824890 318.419220,704.275635 315.036591,704.262268 
	C294.379883,704.181030 273.722717,704.214661 253.065720,704.210144 
	C251.249741,704.209778 249.433746,704.210144 247.165726,704.210144 
	C247.844330,707.656311 250.093658,709.401367 252.191635,711.099792 
	C262.022186,719.058655 278.227539,718.210022 286.860870,708.933044 
	C289.536774,706.057617 291.233459,706.491089 293.901123,708.440918 
	C299.680725,712.665161 305.486572,716.886230 311.553711,720.672852 
	C315.576385,723.183533 315.208160,725.262451 312.427399,728.446777 
	C297.676971,745.337341 278.797241,750.847656 257.128937,748.835449 
	C243.491348,747.568970 231.908585,741.869568 221.857300,732.143250 
M249.627014,668.044312 
	C245.842392,670.794006 242.394669,673.777405 241.721069,679.086060 
	C256.841309,679.086060 271.600891,679.086060 286.506409,679.086060 
	C282.942963,665.117432 264.510284,659.585815 249.627014,668.044312 
z"/>
<path fill="#000000" opacity="1.000000" stroke="none" 
	d="
M698.997681,770.999390 
	C698.985901,776.496399 698.902466,781.494812 698.988403,786.490295 
	C699.044128,789.727356 697.976013,791.418762 694.389893,791.362305 
	C679.267944,791.123962 681.772339,793.017883 681.733154,779.156189 
	C681.611572,736.180298 681.679993,693.203918 681.677429,650.227722 
	C681.677002,643.011292 681.683350,643.019165 688.740784,643.005066 
	C699.833618,642.982971 699.142273,642.306030 699.020142,653.222595 
	C699.001831,654.860901 699.162231,656.501221 699.298828,659.381592 
	C707.148438,650.864685 716.242920,646.496948 726.503174,644.231567 
	C756.226196,637.669189 785.739990,661.040955 786.393616,691.497925 
	C786.759094,708.525146 782.234680,723.575256 769.155396,734.989136 
	C749.482910,752.156738 717.635681,752.188293 698.997925,727.628662 
	C698.997925,741.918945 698.997925,756.209229 698.997681,770.999390 
M699.338623,698.137024 
	C701.749512,717.476685 714.093811,730.399658 731.328491,731.626465 
	C746.323486,732.693848 759.395752,725.383728 765.751160,712.377136 
	C772.563416,698.435791 770.438782,680.150696 760.792053,669.699158 
	C751.297058,659.411926 734.894409,655.760315 721.178772,660.880188 
	C707.116028,666.129700 699.175232,679.329651 699.338623,698.137024 
z"/>
<path fill="#000000" opacity="1.000000" stroke="none" 
	d="
M164.196548,635.823242 
	C175.981842,633.252869 187.441269,634.390442 198.885254,634.886108 
	C202.759033,635.053955 204.391022,636.876038 204.289017,640.918152 
	C204.070724,649.568542 204.033203,658.235535 204.326584,666.881958 
	C204.480377,671.414124 202.676285,672.657532 198.454941,672.462524 
	C192.641754,672.193970 186.798996,672.242615 180.981491,672.473267 
	C173.803391,672.757935 172.158798,674.371887 172.106033,681.553772 
	C171.962952,701.028870 172.024857,720.505371 171.984528,739.981323 
	C171.969757,747.111267 171.836960,747.233887 164.740936,747.241577 
	C155.252472,747.251892 145.762512,747.135437 136.276230,747.276733 
	C132.587708,747.331665 130.742950,746.276550 130.808090,742.210449 
	C131.154434,720.585449 130.225708,698.942261 131.702179,677.333069 
	C133.194077,655.497986 143.858337,641.754150 164.196548,635.823242 
z"/>
<path fill="#000000" opacity="1.000000" stroke="none" 
	d="
M425.839844,671.044495 
	C441.151703,637.717773 486.274567,634.156921 508.716522,659.283752 
	C508.716522,654.717468 508.812958,651.014404 508.685883,647.319031 
	C508.584778,644.377869 509.838074,643.224976 512.752014,642.968445 
	C525.259033,641.867371 525.433044,641.964600 525.422546,654.189026 
	C525.397827,682.988708 525.252258,711.789368 525.468506,740.587280 
	C525.506958,745.708008 523.890930,747.237488 518.944946,747.131775 
	C507.114014,746.878784 508.897430,747.489685 508.730499,736.840149 
	C508.699341,734.851807 508.725983,732.862549 508.725983,730.118347 
	C505.871063,732.675293 503.666809,734.999695 501.126251,736.866577 
	C487.137390,747.146118 472.316193,749.661499 455.537262,743.526672 
	C437.727966,737.015137 426.443298,725.346497 422.177399,707.003723 
	C419.340546,694.805664 420.546936,682.872620 425.839844,671.044495 
M438.510803,702.893005 
	C444.951630,729.207153 472.064667,740.246094 493.564850,725.088562 
	C504.987549,717.035645 508.440887,705.225220 507.848145,691.817688 
	C507.243378,678.138916 500.881409,667.762695 488.777649,661.816528 
	C476.412506,655.741882 463.624634,656.536743 452.292206,664.553589 
	C439.389435,673.681396 436.002625,686.952820 438.510803,702.893005 
z"/>
<path fill="#000000" opacity="1.000000" stroke="none" 
	d="
M332.713867,682.000000 
	C332.711884,648.687073 332.812592,615.873535 332.602936,583.061951 
	C332.570221,577.946960 334.161194,576.367920 339.169983,576.615112 
	C350.022888,577.150818 349.972290,574.532043 349.968811,587.403320 
	C349.960938,616.218689 349.976227,645.033997 349.995300,673.849365 
	C349.996277,675.330688 350.120483,676.811829 350.187012,678.287231 
	C352.306244,678.943787 353.006226,677.276489 353.925385,676.318726 
	C363.492859,666.348511 373.039276,656.357483 382.501831,646.287903 
	C384.582153,644.074158 386.853424,642.880310 389.931274,642.942566 
	C395.352448,643.052185 400.777405,642.973206 406.119263,642.973206 
	C406.693573,646.070435 404.758820,646.969849 403.608643,648.194397 
	C391.753662,660.816101 379.820923,673.364746 367.955200,685.976379 
	C362.801971,691.453613 362.872070,691.479553 367.620697,697.041321 
	C380.379120,711.984314 393.127869,726.935669 405.840790,741.917358 
	C406.853058,743.110352 408.517365,744.030579 408.085968,746.788086 
	C401.824341,747.221985 395.440796,747.455688 389.063629,746.624878 
	C387.157837,746.376587 386.236664,744.413452 385.045776,743.044739 
	C373.687958,729.990479 362.338348,716.929138 350.739899,703.586243 
	C349.422363,705.261292 350.015320,706.944641 350.006470,708.415710 
	C349.941345,719.241699 349.856812,730.070374 350.039703,740.893799 
	C350.113586,745.265564 348.761841,747.203430 344.056946,747.117249 
	C330.524414,746.869080 332.836212,747.810486 332.757385,735.966614 
	C332.638763,718.145081 332.718903,700.322266 332.713867,682.000000 
z"/>
<path fill="#000000" opacity="1.000000" stroke="none" 
	d="
M667.516113,670.424316 
	C650.709167,709.481812 634.014038,748.172241 617.490417,786.935730 
	C616.080383,790.243469 614.319580,791.689026 610.802002,791.359314 
	C606.879700,790.991760 602.862671,791.904236 599.116028,790.748352 
	C598.151306,788.718323 599.315918,787.273865 599.902344,785.784424 
	C605.332275,771.991699 610.709656,758.176392 616.351990,744.470459 
	C617.755798,741.060364 617.566162,738.281494 615.973083,735.018799 
	C602.013611,706.428711 588.186157,677.774109 574.350952,649.123474 
	C573.583435,647.534058 572.232056,646.063721 572.958679,643.457520 
	C578.154602,642.571777 583.578491,642.780701 588.962524,643.307739 
	C591.499634,643.556030 592.013611,646.216858 592.903809,648.088501 
	C603.564331,670.501953 614.145935,692.952942 624.759583,715.388794 
	C625.458435,716.865967 625.806580,718.578918 627.651550,719.738953 
	C630.830200,715.437439 632.277588,710.308105 634.350342,705.540833 
	C642.784607,686.142883 651.061340,666.675720 659.267944,647.180176 
	C660.464966,644.336548 662.081421,642.773499 665.212280,643.018494 
	C669.429810,643.348633 673.799988,642.116760 678.651001,644.352051 
	C674.935791,653.057983 671.304504,661.567322 667.516113,670.424316 
z"/>
<path fill="#000000" opacity="1.000000" stroke="none" 
	d="
M877.676880,740.480896 
	C868.008850,733.617920 864.919189,723.729858 863.709106,713.049316 
	C861.828674,696.452881 863.215515,679.776245 862.851196,663.139465 
	C862.756409,658.811890 862.833618,654.479797 862.868652,650.150146 
	C862.924438,643.262329 863.144836,643.036499 869.802002,642.999390 
	C881.997131,642.931396 880.171021,642.840454 880.229614,653.577026 
	C880.315979,669.397400 880.253845,685.218689 880.248596,701.039551 
	C880.246399,707.746216 880.985535,714.319153 883.631042,720.568787 
	C885.469666,724.912354 888.393921,728.237793 892.888245,729.831482 
	C902.010376,733.066040 911.217102,733.055237 920.180908,729.427612 
	C925.983948,727.079285 928.456299,721.852417 929.441223,716.054871 
	C930.162109,711.811707 930.729248,707.529297 930.702332,703.160706 
	C930.590576,685.009033 930.782776,666.854797 930.570923,648.704895 
	C930.518982,644.256409 932.127625,642.898743 936.350037,642.950867 
	C949.693970,643.115601 947.228333,642.261292 947.317566,653.815491 
	C947.452698,671.300720 947.378662,688.787781 947.347839,706.273926 
	C947.342041,709.599792 947.429260,712.969360 946.954773,716.243713 
	C944.070129,736.152954 935.456665,744.275269 915.312012,746.441406 
	C902.348572,747.835388 889.697266,747.341125 877.676880,740.480896 
z"/>
<path fill="#000000" opacity="1.000000" stroke="none" 
	d="
M824.388794,690.976685 
	C824.085449,698.983948 824.501953,706.501526 825.656372,713.883728 
	C827.453430,725.375488 833.537598,730.590393 845.100342,731.768311 
	C847.252869,731.987549 850.531372,730.992798 851.059631,733.996094 
	C851.739441,737.861267 852.133667,742.024048 850.672180,745.810486 
	C850.048767,747.425598 847.731384,746.991699 846.093201,747.017029 
	C822.989563,747.374817 808.215515,733.414124 807.739685,710.336609 
	C807.413513,694.518188 807.510986,678.688110 807.643860,662.865173 
	C807.677856,658.812805 806.946777,656.414978 802.201416,657.074707 
	C799.006958,657.518799 797.661804,655.745789 797.786926,652.618103 
	C797.873413,650.456299 797.861023,648.285339 797.776245,646.123108 
	C797.664185,643.264282 798.793213,641.514404 801.815674,641.831604 
	C806.281738,642.300232 807.053528,639.911865 807.029358,636.130554 
	C806.917603,618.640808 806.968384,601.149963 806.977356,583.659546 
	C806.980896,576.749939 807.036194,576.675537 813.941650,576.710388 
	C826.001770,576.771240 824.290039,575.577759 824.344116,587.043823 
	C824.421143,603.367920 824.542175,619.695435 824.269531,636.015198 
	C824.190125,640.767212 825.849121,642.175476 830.309082,641.896423 
	C834.955261,641.605591 839.633301,641.842712 844.297180,641.811279 
	C846.921082,641.793579 848.296387,642.871826 848.301331,645.665405 
	C848.324951,659.127380 849.381287,657.003540 837.914856,657.076233 
	C824.380310,657.162048 824.379028,657.077637 824.380859,670.491943 
	C824.381714,677.155029 824.385864,683.818115 824.388794,690.976685 
z"/>
<path fill="#000000" opacity="1.000000" stroke="none" 
	d="
M561.122437,598.000122 
	C561.115173,645.437988 561.109131,692.375916 561.097839,739.313782 
	C561.095947,747.245483 561.085510,747.268066 553.083862,747.246094 
	C541.699219,747.214844 542.815308,748.101807 542.811401,737.099670 
	C542.793213,686.000549 542.795471,634.901489 542.802063,583.802368 
	C542.803040,576.708679 542.833740,576.651794 550.062622,576.721069 
	C562.403625,576.839417 561.012756,575.013184 561.119934,588.012634 
	C561.146057,591.174927 561.122498,594.337646 561.122437,598.000122 
z"/>
<path fill="#000000" opacity="1.000000" stroke="none" 
	d="
M166.781754,862.810730 
	C166.780350,854.849487 166.661545,847.358948 166.845703,839.875854 
	C166.904251,837.497559 165.380981,834.089355 169.204208,833.160095 
	C173.341507,832.154480 174.024429,835.793823 175.265427,838.388428 
	C178.206802,844.538208 181.024109,850.747192 183.954865,856.902100 
	C184.423309,857.885925 184.612961,859.163147 186.381058,859.774414 
	C189.584763,852.742188 192.792740,845.678162 196.024948,838.625244 
	C196.648087,837.265503 197.280487,835.896667 198.061142,834.625732 
	C199.085617,832.957825 200.747284,832.798096 202.471344,833.194031 
	C204.112213,833.570862 204.326050,834.917847 204.328125,836.307983 
	C204.342972,846.291321 204.351166,856.274719 204.346619,866.258057 
	C204.345810,868.024719 204.100830,869.665405 201.778656,869.741089 
	C199.338257,869.820740 198.666824,868.380188 198.676987,866.237488 
	C198.705963,860.137634 198.687164,854.037537 197.904068,847.750977 
	C195.165588,853.711365 192.450775,859.682739 189.674118,865.625305 
	C188.845108,867.399536 188.215698,869.576416 185.754623,869.661743 
	C183.193939,869.750671 182.641617,867.486267 181.816879,865.736572 
	C179.196625,860.177734 176.657593,854.580750 173.084732,849.050476 
	C173.084732,853.828430 173.208328,858.610840 173.032822,863.382385 
	C172.944504,865.783569 174.218658,869.452148 170.097488,869.586975 
	C165.464890,869.738525 167.176041,865.788757 166.781754,862.810730 
z"/>
<path fill="#000000" opacity="1.000000" stroke="none" 
	d="
M327.223236,847.485596 
	C333.293121,838.891907 338.530884,837.778809 348.213074,842.999695 
	C349.295319,840.965942 351.179596,839.841003 353.425415,840.761169 
	C355.828064,841.745544 355.026642,844.173767 355.019165,846.057007 
	C354.983734,855.012512 356.183685,863.987610 354.437927,872.920166 
	C353.324158,878.619202 350.065186,882.077087 344.424988,883.334595 
	C338.440155,884.669006 333.168884,883.386353 329.006989,878.772766 
	C327.746155,877.375122 325.957062,875.325439 327.808197,873.575378 
	C329.689423,871.796814 331.717010,872.995972 333.351746,874.832092 
	C336.412750,878.270325 340.105591,879.647827 344.505463,877.479797 
	C348.636322,875.444336 349.288544,871.895447 348.446289,867.332397 
	C341.569000,871.112061 334.741455,872.045532 329.030701,865.802612 
	C324.156555,860.474365 323.494843,854.278625 327.223236,847.485596 
M332.202484,859.058228 
	C332.734009,859.898865 333.169128,860.823364 333.813904,861.565613 
	C336.475800,864.629822 339.796234,866.019470 343.602295,864.153259 
	C347.554291,862.215332 349.449707,858.841797 348.821350,854.314575 
	C348.189667,849.763306 345.818268,846.466125 341.284943,845.424988 
	C337.167236,844.479126 334.223785,846.715881 332.238464,850.148132 
	C330.727905,852.759644 330.949738,855.573608 332.202484,859.058228 
z"/>
<path fill="#000000" opacity="1.000000" stroke="none" 
	d="
M531.932129,844.504333 
	C535.949768,860.407043 528.036499,870.117004 511.927795,869.932861 
	C500.717468,869.804626 502.038635,870.116089 501.979584,859.827515 
	C501.944183,853.661499 501.975037,847.494995 501.981049,841.328735 
	C501.989258,832.949097 501.991272,832.950317 510.156250,832.906433 
	C511.489380,832.899292 512.822510,832.879883 514.155579,832.860535 
	C522.511047,832.739258 528.611755,836.145081 531.932129,844.504333 
M526.747620,847.185425 
	C524.557373,840.745239 516.705322,836.464722 510.502777,838.190674 
	C508.354095,838.788513 508.187012,840.321106 508.179016,842.018188 
	C508.149261,848.325439 508.223816,854.633728 508.137207,860.939941 
	C508.095642,863.969055 509.513153,865.056519 512.397949,864.989319 
	C520.637146,864.797241 528.844482,861.703857 526.747620,847.185425 
z"/>
<path fill="#000000" opacity="1.000000" stroke="none" 
	d="
M726.209656,848.937866 
	C727.355042,852.993103 728.418274,856.654480 729.893921,861.736084 
	C731.742310,855.372803 733.258118,850.275940 734.694580,845.156921 
	C735.395996,842.657715 736.059753,840.226746 739.418945,840.434143 
	C742.640686,840.633057 742.648315,843.315125 743.247803,845.475586 
	C744.615906,850.405823 745.913208,855.355713 748.097961,860.319336 
	C749.617126,854.943481 751.219788,849.589294 752.624695,844.183777 
	C753.497009,840.827393 755.381897,839.931274 758.692200,841.148499 
	C759.476746,844.307129 757.528320,846.883240 756.760071,849.642151 
	C755.200378,855.243530 753.275513,860.742310 751.573425,866.305481 
	C750.927917,868.415161 749.941101,869.881958 747.448547,869.823242 
	C744.904602,869.763245 744.156921,868.119507 743.581909,866.031494 
	C742.178101,860.934143 740.647461,855.871765 738.802246,849.540649 
	C736.990234,855.654846 735.508789,860.624023 734.047241,865.599060 
	C733.422241,867.726685 732.853210,869.806824 729.954895,869.780945 
	C727.178040,869.756165 726.359070,867.872437 725.683044,865.704346 
	C723.357361,858.245605 720.991516,850.799377 718.685059,843.334717 
	C718.503174,842.745911 718.661133,842.052124 718.661133,841.364319 
	C722.174805,839.605469 724.137146,840.668396 724.987854,844.204956 
	C725.337463,845.658630 725.745850,847.098022 726.209656,848.937866 
z"/>
<path fill="#000000" opacity="1.000000" stroke="none" 
	d="
M466.847137,837.522217 
	C468.937592,832.678467 472.476746,830.666016 477.239227,830.684509 
	C482.396820,830.704468 485.644379,833.931091 485.851379,839.044556 
	C485.911530,840.531433 485.683167,841.790222 484.027832,842.060120 
	C482.583710,842.295654 480.937592,842.618896 480.417664,840.526855 
	C480.338013,840.206299 480.351776,839.862610 480.272400,839.541992 
	C479.508240,836.453735 477.375854,835.304565 474.657654,836.580994 
	C471.580353,838.026245 472.367859,840.507202 473.838806,842.881165 
	C477.527802,848.834656 481.981384,854.213562 486.328033,859.675842 
	C488.582520,862.508789 490.781830,865.385681 493.198456,868.489807 
	C487.604156,871.799622 485.253143,867.903198 482.528320,864.359009 
	C478.630280,868.322388 474.503082,871.265625 468.879761,870.090088 
	C466.111450,869.511414 464.181427,867.702698 462.744812,865.344177 
	C458.423706,858.250488 460.513000,852.468140 469.358490,847.669434 
	C467.757385,844.653931 465.877136,841.610168 466.847137,837.522217 
M468.082214,863.484497 
	C470.986633,865.775146 473.638947,865.242920 475.791870,862.499023 
	C477.569489,860.233459 477.954437,857.640503 475.958496,855.261108 
	C474.336761,853.327637 472.075989,852.453430 469.774536,853.706421 
	C466.644806,855.410400 465.652191,858.234436 466.790344,861.678650 
	C466.940216,862.132202 467.304657,862.514771 468.082214,863.484497 
z"/>
<path fill="#000000" opacity="1.000000" stroke="none" 
	d="
M449.934570,847.731812 
	C448.578003,851.431335 445.919525,853.349670 442.661377,854.947205 
	C444.220245,860.153137 448.657745,863.697815 450.520569,868.912170 
	C446.932678,870.699524 444.347595,870.162109 442.353790,866.849182 
	C440.640381,864.002014 438.820496,861.217773 437.004059,858.434265 
	C436.019379,856.925293 435.130524,854.943726 432.863220,855.570251 
	C430.641052,856.184326 431.474548,858.291565 431.378296,859.828247 
	C431.253754,861.816162 431.324615,863.816895 431.324890,865.812073 
	C431.325165,867.738281 431.241394,869.599487 428.608063,869.646851 
	C426.118896,869.691589 425.614105,868.128418 425.620728,866.045288 
	C425.651855,856.235657 425.672729,846.425781 425.640625,836.616150 
	C425.632416,834.102844 426.803406,832.929382 429.249786,832.962891 
	C432.734650,833.010681 436.267059,832.749451 439.694183,833.228333 
	C448.383942,834.442810 451.294189,838.597900 449.934570,847.731812 
M437.267120,849.934570 
	C437.927948,849.881531 438.596741,849.876221 439.248291,849.767639 
	C442.927490,849.153931 444.875061,847.011047 444.548492,843.240967 
	C444.226715,839.526550 440.762665,837.837891 435.223389,837.939941 
	C430.715027,838.022949 431.506287,841.058472 431.323334,843.821289 
	C431.075562,847.562561 431.443329,850.620911 437.267120,849.934570 
z"/>
<path fill="#000000" opacity="1.000000" stroke="none" 
	d="
M766.519592,851.869446 
	C770.840820,839.969788 778.383606,836.987305 788.959778,842.953796 
	C790.504944,841.624817 792.209106,839.540833 794.698120,840.974365 
	C796.833191,842.204041 796.073730,844.533325 796.101746,846.424927 
	C796.192688,852.562561 796.173462,858.702698 796.111267,864.841064 
	C796.093567,866.592163 796.485168,868.658142 794.230347,869.520813 
	C791.937195,870.398193 790.444275,869.256531 789.281006,867.196655 
	C783.611084,870.910339 777.692017,871.822388 772.118958,867.613037 
	C767.143066,863.854736 764.870605,858.658142 766.519592,851.869446 
M778.361328,845.641846 
	C777.502197,846.141541 776.558655,846.537842 775.798096,847.158386 
	C772.095947,850.178589 771.264160,854.064636 773.012329,858.354492 
	C774.612488,862.281067 777.234924,865.265137 782.002258,864.854370 
	C786.179443,864.494446 788.536377,861.751587 789.630127,857.985413 
	C790.914612,853.562927 788.770203,848.734070 784.853455,846.372437 
	C783.036499,845.276855 781.132507,845.028870 778.361328,845.641846 
z"/>
<path fill="#000000" opacity="1.000000" stroke="none" 
	d="
M847.445251,870.074463 
	C837.208984,870.518311 831.947083,866.521423 830.399841,857.513916 
	C829.035034,849.568542 833.219910,842.545288 840.644653,840.320618 
	C848.403564,837.995789 857.568237,843.572021 858.993103,851.465576 
	C859.691895,855.337097 858.662964,857.548218 854.171509,857.386658 
	C848.543701,857.184326 842.903015,857.338074 837.157776,857.338074 
	C836.422241,861.049255 838.358337,862.801331 840.787842,864.015564 
	C843.840088,865.541016 847.073853,865.508545 849.695679,863.203125 
	C851.846252,861.312134 853.852234,859.928650 857.392090,861.409180 
	C856.163513,866.511414 852.481873,868.730774 847.445251,870.074463 
M840.192139,852.682373 
	C844.086365,852.479980 848.039001,853.178345 852.288513,852.083862 
	C851.719727,848.131287 849.693848,845.896301 846.025635,845.317078 
	C842.437012,844.750305 839.477112,845.969177 837.579407,849.178223 
	C836.393250,851.183960 836.499756,852.701660 840.192139,852.682373 
z"/>
<path fill="#000000" opacity="1.000000" stroke="none" 
	d="
M624.123901,842.709839 
	C621.601685,843.262207 619.883667,842.646973 618.697327,840.660156 
	C617.688721,838.971008 616.028564,838.089417 614.184692,837.834900 
	C611.117920,837.411560 608.413696,838.261292 607.442566,841.499329 
	C606.535217,844.524536 607.930481,846.737915 610.909180,847.699585 
	C613.740479,848.613647 616.753906,849.028870 619.498413,850.132874 
	C624.790527,852.261780 627.394592,857.290222 626.054382,862.092590 
	C624.553345,867.471069 618.356750,870.933533 611.617004,870.159729 
	C605.274231,869.431519 601.969055,866.207153 601.815979,860.400208 
	C604.395020,859.206848 606.428894,859.560486 608.043518,862.212463 
	C609.787659,865.077393 612.601562,865.412537 615.515991,864.628174 
	C618.015137,863.955566 620.304565,862.545532 620.481323,859.699158 
	C620.651611,856.957397 618.376282,855.626892 616.182861,854.805786 
	C613.708435,853.879333 611.034912,853.498657 608.517334,852.670044 
	C603.963196,851.171082 601.146423,847.981201 601.016357,843.157959 
	C600.888306,838.406067 603.905640,835.523987 608.074646,833.880188 
	C612.635925,832.081665 617.294067,831.928345 621.426697,834.835510 
	C623.924988,836.592957 626.634094,838.764954 624.123901,842.709839 
z"/>
<path fill="#000000" opacity="1.000000" stroke="none" 
	d="
M655.042908,840.407471 
	C663.257629,844.360840 666.276001,849.454590 665.232483,857.099609 
	C664.405884,863.155457 658.458313,869.238708 652.440186,870.183655 
	C644.041870,871.502502 636.424438,865.858765 635.684692,857.769714 
	C634.820801,848.322083 641.865295,839.840088 650.737122,839.730591 
	C652.042542,839.714478 653.352783,840.078125 655.042908,840.407471 
M648.842102,864.913391 
	C656.157532,864.695679 659.269470,861.270020 658.867737,853.877319 
	C658.556641,848.153748 654.969543,844.805115 649.549438,845.204529 
	C645.238159,845.522278 643.028259,848.127930 642.227417,852.129150 
	C640.961792,858.452820 642.784546,862.358582 648.842102,864.913391 
z"/>
<path fill="#000000" opacity="1.000000" stroke="none" 
	d="
M254.645721,857.989746 
	C254.792206,855.198059 254.337891,852.932861 253.744507,850.667358 
	C252.752121,846.878296 250.354034,845.091125 246.459702,845.358643 
	C242.635910,845.621338 240.738312,848.146423 240.419479,851.532043 
	C240.016251,855.813843 240.225067,860.154236 240.189651,864.469482 
	C240.170593,866.791199 240.614807,869.513550 237.199783,869.694275 
	C233.708725,869.878967 233.870621,867.144470 233.862091,864.805908 
	C233.837799,858.157837 233.888779,851.509460 233.894287,844.861206 
	C233.897446,841.041504 235.818344,839.385315 239.228592,841.126587 
	C241.182938,842.124573 242.336899,841.265686 243.815247,840.764099 
	C251.849045,838.038574 258.163757,841.563477 259.769348,849.842407 
	C260.854614,855.438416 260.130219,861.109924 260.075958,866.748291 
	C260.056549,868.767822 258.882233,869.775452 256.875671,869.706299 
	C254.741364,869.632874 253.974823,868.200317 254.036346,866.356995 
	C254.124710,863.710144 254.430923,861.070618 254.645721,857.989746 
z"/>
<path fill="#000000" opacity="1.000000" stroke="none" 
	d="
M309.384033,841.231201 
	C313.701508,843.788147 315.304138,847.442261 315.326569,851.898743 
	C315.350891,856.726135 315.279480,861.554077 315.289276,866.381653 
	C315.293152,868.283875 314.783966,869.710510 312.556702,869.693542 
	C310.449463,869.677429 309.656647,868.442871 309.669678,866.463745 
	C309.697113,862.302002 309.847229,858.132568 309.655975,853.979736 
	C309.382843,848.047546 306.840729,845.254333 302.187866,845.336853 
	C297.909302,845.412659 295.535431,848.321411 295.348267,854.010315 
	C295.216949,858.002319 295.278900,862.001892 295.314362,865.997620 
	C295.332397,868.028442 294.988129,869.714844 292.482819,869.786499 
	C290.193848,869.852051 289.103821,868.589905 289.098969,866.406006 
	C289.082336,858.914429 289.094421,851.422546 289.140045,843.931091 
	C289.153076,841.792542 290.427856,839.763916 292.406281,840.678406 
	C296.051208,842.363281 298.999268,840.656494 302.235138,839.928833 
	C304.602814,839.396301 306.844940,840.209778 309.384033,841.231201 
z"/>
<path fill="#000000" opacity="1.000000" stroke="none" 
	d="
M677.825195,832.995056 
	C679.476685,830.642395 681.510864,829.643127 683.927063,829.322083 
	C685.355835,829.132263 686.706726,829.306885 687.136658,830.913391 
	C687.496826,832.258850 687.128723,833.277893 685.789673,834.264404 
	C681.213379,837.636047 681.272949,838.046204 686.021667,840.390625 
	C687.186768,840.965820 687.987671,841.581970 687.930359,842.955994 
	C687.873230,844.326599 687.156067,845.228760 685.801086,845.244568 
	C682.049011,845.288147 682.212708,847.875854 682.222534,850.461975 
	C682.242249,855.624390 682.212219,860.786865 682.215637,865.949341 
	C682.216980,867.994324 681.710022,869.615784 679.244446,869.664062 
	C676.828186,869.711426 676.071899,868.199280 676.054871,866.118835 
	C676.018188,861.622864 676.110291,857.124573 675.997253,852.631042 
	C675.925171,849.767761 676.847595,846.596802 673.496094,844.596375 
	C672.453247,843.973877 672.463074,842.052063 673.442505,841.501526 
	C676.751587,839.641174 675.907715,835.860962 677.825195,832.995056 
z"/>
<path fill="#000000" opacity="1.000000" stroke="none" 
	d="
M696.020996,841.056274 
	C698.293823,840.223022 698.711609,838.701965 698.694519,836.908630 
	C698.675903,834.951233 699.417603,833.728821 701.611145,833.785339 
	C703.507202,833.834167 704.351685,834.882935 704.311584,836.629333 
	C704.241516,839.679199 705.821655,840.754272 708.662659,840.656860 
	C710.295532,840.600952 711.730408,841.082886 711.661926,843.116089 
	C711.591125,845.217468 709.966431,845.390442 708.437683,845.320312 
	C704.941345,845.160034 704.273071,847.195679 704.373779,850.098083 
	C704.471863,852.924255 704.473022,855.759827 704.366394,858.585571 
	C704.231445,862.162170 704.873840,864.948547 709.354370,864.845215 
	C710.921082,864.809082 711.844727,865.732605 711.812317,867.348022 
	C711.780579,868.929321 710.773315,869.654785 709.323242,870.002808 
	C703.844604,871.317627 698.883850,867.587585 698.705383,861.899902 
	C698.606201,858.740295 698.709778,855.574829 698.665100,852.412781 
	C698.622314,849.379944 699.496887,846.077393 695.548462,844.380859 
	C694.486206,843.924438 694.914795,842.303406 696.020996,841.056274 
z"/>
<path fill="#000000" opacity="1.000000" stroke="none" 
	d="
M817.108398,846.885376 
	C812.977722,850.748047 813.348328,855.474060 813.487244,860.106750 
	C813.551636,862.256775 813.949768,864.396851 814.010925,866.546753 
	C814.066772,868.512390 813.001709,869.651123 810.962280,869.669678 
	C808.981567,869.687683 807.795410,868.754272 807.790344,866.695129 
	C807.771057,858.893372 807.715576,851.090515 807.824280,843.290161 
	C807.863953,840.439819 810.446716,839.708130 812.007751,840.884521 
	C814.375793,842.669067 815.847351,841.427063 817.768188,840.647827 
	C819.242859,840.049561 821.180847,839.143372 821.979675,841.417053 
	C822.667969,843.376099 822.649353,845.452148 819.819885,845.995361 
	C819.010132,846.150818 818.225952,846.439697 817.108398,846.885376 
z"/>
<path fill="#000000" opacity="1.000000" stroke="none" 
	d="
M222.148315,843.320984 
	C222.220413,850.909912 222.248291,858.029968 222.253876,865.150085 
	C222.255600,867.356262 222.323074,869.753235 219.168976,869.730225 
	C215.860107,869.705994 216.371613,867.277832 216.410217,865.085876 
	C216.532654,858.134399 216.552078,851.181091 216.650787,844.229065 
	C216.669220,842.931030 216.574936,841.413574 218.237610,840.967163 
	C219.988190,840.497070 221.566605,840.679199 222.148315,843.320984 
z"/>
<path fill="#000000" opacity="1.000000" stroke="none" 
	d="
M272.178772,841.865601 
	C275.644226,839.726868 277.390137,840.475708 277.377228,844.416992 
	C277.353271,851.742798 277.377533,859.068970 277.425446,866.394775 
	C277.437469,868.230408 277.244232,869.811829 274.885040,869.788879 
	C272.526062,869.765869 271.721497,868.341919 271.743866,866.200867 
	C271.827301,858.215759 271.904358,850.230652 272.178772,841.865601 
z"/>
<path fill="#000000" opacity="1.000000" stroke="none" 
	d="
M277.667297,831.487305 
	C278.707642,834.310486 277.891449,836.113953 275.428558,836.850952 
	C273.866547,837.318176 272.568848,836.461426 271.688080,835.099609 
	C270.783844,833.701538 270.711548,832.229675 271.859314,831.013916 
	C273.690277,829.074402 275.616211,829.387329 277.667297,831.487305 
z"/>
<path fill="#000000" opacity="1.000000" stroke="none" 
	d="
M222.605850,831.747070 
	C223.476746,834.712646 222.250778,836.312195 219.816132,836.881042 
	C218.164688,837.266846 216.953201,836.152832 216.236038,834.740417 
	C215.376205,833.046875 215.680161,831.404053 217.259140,830.324646 
	C219.260635,828.956482 221.028534,829.536987 222.605850,831.747070 
z"/>
<path fill="#000000" opacity="1.000000" stroke="none" 
	d="
M393.459961,851.228271 
	C393.299469,854.049866 391.916260,855.279846 389.522675,854.840332 
	C387.922882,854.546570 387.048248,853.204956 386.907288,851.562561 
	C386.779419,850.072388 387.494629,848.889465 388.838348,848.378357 
	C391.214325,847.474487 392.618317,848.682373 393.459961,851.228271 
z"/>
<path fill="#000000" opacity="1.000000" stroke="none" 
	d="
M568.983398,849.211426 
	C570.766052,851.502930 570.360657,853.234314 568.328491,854.539307 
	C566.825134,855.504822 565.418152,854.903137 564.298157,853.749512 
	C563.302063,852.723450 562.895996,851.411377 563.670227,850.101257 
	C564.902954,848.015198 566.629089,847.588806 568.983398,849.211426 
z"/>
</svg>