<svg height="32" viewBox="0 0 32 32" width="32" xmlns="http://www.w3.org/2000/svg"><path d="m30 14.7842c0-5.1782-6.2681-9.376-14-9.376s-14 4.1978-14 9.376c0 4.6147 4.9814 8.4419 11.5361 9.2226v2.9917l4.7762-.0019v-2.9741a19.3812 19.3812 0 0 0 3.3418-.6646l1.9389 3.6421 5.3975-.0024-3.253-5.4849c2.625-1.7041 4.2625-4.0864 4.2625-6.7285zm-22.4983.7c0-3.54 4.7644-6.41 10.6414-6.41s10.2138 1.9629 10.2138 6.41a5.4694 5.4694 0 0 1 -3.3982 5.1258 3.2252 3.2252 0 0 0 -.2978-.1749 10.4735 10.4735 0 0 0 -1.34-.5048s4.1743-.31 4.1743-4.4659-4.3684-4.2343-4.3684-4.2343h-9.5907v10.0253c-3.5661-1.0354-6.0344-3.2271-6.0344-5.7715zm13.7422 1.8452-2.8928.001.0014-2.6812 2.8914.0015a1.2476 1.2476 0 0 1 1.34 1.3149 1.3232 1.3232 0 0 1 -1.34 1.3635zm-2.9326 3.4946h1.2825a.8785.8785 0 0 1 .6406.291 3.2917 3.2917 0 0 1 .51.63 22.4033 22.4033 0 0 1 -2.4326.1455z" fill-rule="evenodd"/><path d="m0 0h32v32h-32z" fill="none"/></svg>